<!--?xml version="1.0" standalone="no"?-->
              <svg id="sw-js-blob-svg" viewBox="0 0 100 100" xmlns="http://www.w3.org/2000/svg" version="1.1">
                    <defs> 
                        <linearGradient id="sw-gradient" x1="0" x2="1" y1="1" y2="0">
                            <stop id="stop1" stop-color="rgba(248, 117, 55, 1)" offset="0%"></stop>
                            <stop id="stop2" stop-color="rgba(251, 168, 31, 1)" offset="100%"></stop>
                        </linearGradient>
                    </defs>
                <path fill="url(#sw-gradient)" d="M20,-35.3C24.3,-32.1,25.1,-23.5,29.1,-16.7C33.1,-10,40.4,-5,42.7,1.4C45.1,7.7,42.6,15.5,37.2,19.7C31.7,24,23.3,24.9,16.6,28.4C9.9,31.9,4.9,38.1,-0.1,38.3C-5.2,38.5,-10.4,32.7,-15.2,28.2C-20,23.6,-24.5,20.2,-30,15.7C-35.4,11.2,-41.9,5.6,-43.4,-0.9C-44.9,-7.3,-41.5,-14.7,-37.4,-21.5C-33.3,-28.4,-28.6,-34.8,-22.2,-36.8C-15.9,-38.8,-7.9,-36.4,-0.1,-36.3C7.8,-36.2,15.6,-38.4,20,-35.3Z" width="100%" height="100%" transform="translate(50 50)" stroke-width="0" style="transition: all 0.3s ease 0s;"></path>
              </svg>